<svg xmlns="http://www.w3.org/2000/svg" xmlns:xlink="http://www.w3.org/1999/xlink" width="708" height="299.261" viewBox="0 0 708 299.261"><defs><linearGradient id="a" x1="0.5" x2="0.145" y2="1.12" gradientUnits="objectBoundingBox"><stop offset="0" stop-color="#fdb31e"/><stop offset="1" stop-color="#f97f2a"/></linearGradient><linearGradient id="d" x1="0.664" y1="0.264" x2="0.315" y2="1.186" xlink:href="#a"/><linearGradient id="h" x2="0.233" y2="0.87" xlink:href="#a"/><linearGradient id="i" x1="0.633" y1="0.045" x2="0.266" y2="0.928" xlink:href="#a"/><linearGradient id="j" x1="0.723" y1="-0.046" x2="0.057" y2="1" xlink:href="#a"/><linearGradient id="k" x2="0.5" y2="1" xlink:href="#a"/></defs><g transform="translate(-731 -734.639)"><line y2="48" transform="translate(1087.5 876.5)" fill="none" stroke="#fdb31e" stroke-linecap="round" stroke-width="2"/><path d="M2803.5,949V920.459h331.74" transform="translate(-2048 5)" fill="none" stroke="#fdb31e" stroke-linecap="round" stroke-width="2"/><path d="M3010.5,949V920.42" transform="translate(-2048 5.039)" fill="none" stroke="#fdb31e" stroke-linecap="round" stroke-width="2"/><path d="M3135.24,949V920.459H2803.5" transform="translate(-1716.74 5)" fill="none" stroke="#fdb31e" stroke-linecap="round" stroke-width="2"/><path d="M3259.5,949V919.989" transform="translate(-2048 5.47)" fill="none" stroke="#fdb31e" stroke-linecap="round" stroke-width="2"/><g transform="translate(730.016 954.516)"><path d="M45.288,5.484H5.671A4.7,4.7,0,0,0,.984,10.171V31.984A4.7,4.7,0,0,0,5.671,36.67H45.3a4.7,4.7,0,0,0,4.686-4.686V10.171A4.711,4.711,0,0,0,45.288,5.484ZM47.14,31.973a1.853,1.853,0,0,1-1.852,1.852H5.671a1.853,1.853,0,0,1-1.852-1.852v-21.8A1.853,1.853,0,0,1,5.671,8.319H45.3a1.853,1.853,0,0,1,1.852,1.852v21.8Z" fill="url(#a)"/><path d="M42.154,9H5.715A1.218,1.218,0,0,0,4.5,10.215V28.839a1.218,1.218,0,0,0,1.215,1.215H42.154a1.218,1.218,0,0,0,1.215-1.215V10.215A1.218,1.218,0,0,0,42.154,9Z" transform="translate(1.545 1.545)" fill="url(#a)"/><path d="M33.5,28.547H10.417a1.417,1.417,0,0,0,0,2.834H33.5a1.417,1.417,0,0,0,0-2.834Z" transform="translate(3.523 10.137)" fill="url(#a)"/></g><path d="M11.825,5.545v1.11H8.975V16H7.61V6.655H4.745V5.545Zm4.74,9.195,2.55-6.96H20.57L17.345,16h-1.59L12.53,7.78H14Z" transform="translate(743 1001)" fill="#fdb31e"/><path d="M-4049,15h-25V2a2,2,0,0,1,2-2h21a2,2,0,0,1,2,2V15Zm-21-7a1,1,0,0,0-1,1v2a1,1,0,0,0,1,1,1,1,0,0,0,1-1V9A1,1,0,0,0-4070,8Z" transform="translate(5024 960)" fill="url(#d)"/><path d="M-4051,27h-21a2,2,0,0,1-2-2V0h25V25A2,2,0,0,1-4051,27Zm-19-24a1,1,0,0,0-1,1V8a1,1,0,0,0,1,1,1,1,0,0,0,1-1V4A1,1,0,0,0-4070,3Z" transform="translate(5024 977)" fill="url(#d)"/><rect width="6" height="2" rx="1" transform="translate(967.5 1005)" fill="url(#d)"/><rect width="6" height="2" rx="1" transform="translate(951.5 1005)" fill="url(#d)"/><path d="M8.925,16l-2.49-4.275H4.785V16H3.42V5.545H6.795a4.481,4.481,0,0,1,2,.4,2.82,2.82,0,0,1,1.222,1.1,3.053,3.053,0,0,1,.405,1.575,3.077,3.077,0,0,1-.623,1.9A3.042,3.042,0,0,1,7.935,11.62L10.56,16Zm-4.14-5.37h2.01a2.28,2.28,0,0,0,1.665-.547A1.962,1.962,0,0,0,9.015,8.62a1.871,1.871,0,0,0-.547-1.44,2.382,2.382,0,0,0-1.673-.51H4.785Zm15.255.945a8.033,8.033,0,0,1-.045.825h-6.57a2.584,2.584,0,0,0,2.67,2.58,2.524,2.524,0,0,0,1.478-.412,2.184,2.184,0,0,0,.832-1.1h1.47a3.534,3.534,0,0,1-1.32,1.927,3.984,3.984,0,0,1-2.46.743A4.155,4.155,0,0,1,14,15.61a3.716,3.716,0,0,1-1.448-1.492,4.629,4.629,0,0,1-.525-2.243,4.7,4.7,0,0,1,.51-2.235,3.58,3.58,0,0,1,1.433-1.477,4.264,4.264,0,0,1,2.122-.517,4.125,4.125,0,0,1,2.07.51,3.531,3.531,0,0,1,1.388,1.4A4.139,4.139,0,0,1,20.04,11.575Zm-1.41-.285a2.518,2.518,0,0,0-.345-1.342,2.244,2.244,0,0,0-.937-.855A2.924,2.924,0,0,0,16.035,8.8a2.53,2.53,0,0,0-1.763.66,2.689,2.689,0,0,0-.832,1.83ZM25.185,8.9H23.46V16H22.095V8.9H21.03V7.78h1.065V7.195a2.579,2.579,0,0,1,.712-2.017,3.38,3.38,0,0,1,2.288-.638V5.68a1.812,1.812,0,0,0-1.267.352,1.558,1.558,0,0,0-.368,1.163V7.78h1.725Zm2.955.21A2.618,2.618,0,0,1,29.167,8.02a3.176,3.176,0,0,1,1.627-.39V9.04h-.36q-2.3,0-2.3,2.49V16H26.775V7.78H28.14Zm4.935-2.67a.933.933,0,0,1-.66-1.59.9.9,0,0,1,.66-.27.856.856,0,0,1,.638.27.961.961,0,0,1,0,1.32A.856.856,0,0,1,33.075,6.445Zm.66,1.335V16H32.37V7.78Zm5.715-.135a3.658,3.658,0,0,1,1.868.465A3.086,3.086,0,0,1,42.51,9.28V7.78h1.38v8.4a4.1,4.1,0,0,1-.48,2,3.421,3.421,0,0,1-1.373,1.372,4.214,4.214,0,0,1-2.077.495,4.556,4.556,0,0,1-2.7-.765A2.99,2.99,0,0,1,35.985,17.2h1.35a2.148,2.148,0,0,0,.93,1.207,3.046,3.046,0,0,0,1.695.458,2.5,2.5,0,0,0,1.838-.7,2.661,2.661,0,0,0,.712-1.98V14.455a3.285,3.285,0,0,1-1.2,1.2,3.528,3.528,0,0,1-1.86.48,3.74,3.74,0,0,1-3.39-2.055,4.718,4.718,0,0,1-.51-2.22,4.617,4.617,0,0,1,.51-2.213,3.7,3.7,0,0,1,1.4-1.477A3.847,3.847,0,0,1,39.45,7.645Zm3.06,4.23a3.342,3.342,0,0,0-.375-1.62A2.648,2.648,0,0,0,41.122,9.2a2.871,2.871,0,0,0-2.8-.007,2.612,2.612,0,0,0-1.005,1.05,3.342,3.342,0,0,0-.375,1.62A3.419,3.419,0,0,0,37.32,13.5a2.653,2.653,0,0,0,1.005,1.065,2.718,2.718,0,0,0,1.395.367,2.758,2.758,0,0,0,1.4-.367A2.637,2.637,0,0,0,42.135,13.5,3.386,3.386,0,0,0,42.51,11.875Zm11.19-.3a8.034,8.034,0,0,1-.045.825h-6.57a2.584,2.584,0,0,0,2.67,2.58,2.524,2.524,0,0,0,1.478-.412,2.184,2.184,0,0,0,.833-1.1h1.47a3.534,3.534,0,0,1-1.32,1.927,3.984,3.984,0,0,1-2.46.743,4.155,4.155,0,0,1-2.092-.525,3.716,3.716,0,0,1-1.448-1.492,4.629,4.629,0,0,1-.525-2.243A4.7,4.7,0,0,1,46.2,9.64a3.58,3.58,0,0,1,1.433-1.477,4.264,4.264,0,0,1,2.122-.517,4.125,4.125,0,0,1,2.07.51,3.531,3.531,0,0,1,1.388,1.4A4.139,4.139,0,0,1,53.7,11.575Zm-1.41-.285a2.518,2.518,0,0,0-.345-1.342,2.244,2.244,0,0,0-.937-.855A2.924,2.924,0,0,0,49.695,8.8a2.53,2.53,0,0,0-1.763.66,2.689,2.689,0,0,0-.833,1.83Zm4.575-2.175A2.618,2.618,0,0,1,57.892,8.02a3.176,3.176,0,0,1,1.627-.39V9.04h-.36q-2.295,0-2.295,2.49V16H55.5V7.78h1.365Zm3.72,2.745a4.617,4.617,0,0,1,.51-2.213A3.7,3.7,0,0,1,62.5,8.17a3.847,3.847,0,0,1,1.988-.525,3.647,3.647,0,0,1,1.875.465,3.1,3.1,0,0,1,1.185,1.17V7.78h1.38V16h-1.38V14.47a3.216,3.216,0,0,1-1.207,1.193,3.612,3.612,0,0,1-1.868.472,3.726,3.726,0,0,1-1.98-.54,3.787,3.787,0,0,1-1.4-1.515A4.718,4.718,0,0,1,60.585,11.86Zm6.96.015a3.342,3.342,0,0,0-.375-1.62A2.648,2.648,0,0,0,66.158,9.2a2.871,2.871,0,0,0-2.8-.007,2.612,2.612,0,0,0-1.005,1.05,3.342,3.342,0,0,0-.375,1.62,3.419,3.419,0,0,0,.375,1.643,2.653,2.653,0,0,0,1.005,1.065,2.718,2.718,0,0,0,1.395.367,2.758,2.758,0,0,0,1.4-.367A2.637,2.637,0,0,0,67.17,13.5,3.386,3.386,0,0,0,67.545,11.875ZM72.9,8.9V13.75a1.153,1.153,0,0,0,.255.847,1.257,1.257,0,0,0,.885.248h1.005V16h-1.23a2.448,2.448,0,0,1-1.71-.525,2.253,2.253,0,0,1-.57-1.725V8.9H70.47V7.78h1.065V5.71H72.9V7.78h2.145V8.9Zm7.38,7.23a4.208,4.208,0,0,1-2.092-.525,3.738,3.738,0,0,1-1.47-1.492,4.576,4.576,0,0,1-.533-2.243,4.444,4.444,0,0,1,.548-2.228,3.773,3.773,0,0,1,1.493-1.485,4.581,4.581,0,0,1,4.23,0A3.786,3.786,0,0,1,83.948,9.64a4.433,4.433,0,0,1,.548,2.235,4.38,4.38,0,0,1-.562,2.243A3.9,3.9,0,0,1,82.41,15.61,4.366,4.366,0,0,1,80.28,16.135Zm0-1.2a2.882,2.882,0,0,0,1.38-.345A2.625,2.625,0,0,0,82.7,13.555a3.315,3.315,0,0,0,.4-1.68,3.366,3.366,0,0,0-.39-1.68,2.554,2.554,0,0,0-1.02-1.028,2.944,2.944,0,0,0-2.738,0,2.474,2.474,0,0,0-1,1.028,3.476,3.476,0,0,0-.375,1.68,3.57,3.57,0,0,0,.368,1.695A2.443,2.443,0,0,0,78.93,14.6,2.76,2.76,0,0,0,80.28,14.935Zm7.38-5.82A2.618,2.618,0,0,1,88.688,8.02a3.176,3.176,0,0,1,1.628-.39V9.04h-.36q-2.3,0-2.3,2.49V16H86.295V7.78H87.66Z" transform="translate(916 1011)" fill="#fdb31e"/><path d="M8.915,5.545v1.11H4.37V10.18H8.06v1.11H4.37V16H3.005V5.545Zm1.14,6.315a4.617,4.617,0,0,1,.51-2.213,3.7,3.7,0,0,1,1.4-1.477,3.847,3.847,0,0,1,1.988-.525,3.648,3.648,0,0,1,1.875.465,3.1,3.1,0,0,1,1.185,1.17V7.78H18.4V16h-1.38V14.47a3.216,3.216,0,0,1-1.207,1.193,3.612,3.612,0,0,1-1.868.472,3.726,3.726,0,0,1-1.98-.54,3.787,3.787,0,0,1-1.4-1.515A4.718,4.718,0,0,1,10.055,11.86Zm6.96.015a3.342,3.342,0,0,0-.375-1.62A2.648,2.648,0,0,0,15.628,9.2a2.871,2.871,0,0,0-2.8-.007,2.612,2.612,0,0,0-1.005,1.05,3.342,3.342,0,0,0-.375,1.62,3.419,3.419,0,0,0,.375,1.643,2.653,2.653,0,0,0,1.005,1.065,2.718,2.718,0,0,0,1.4.367,2.758,2.758,0,0,0,1.4-.367A2.637,2.637,0,0,0,16.64,13.5,3.386,3.386,0,0,0,17.015,11.875ZM24.71,7.63a3.331,3.331,0,0,1,2.43.908,3.493,3.493,0,0,1,.93,2.618V16H26.72V11.35A2.643,2.643,0,0,0,26.1,9.467a2.2,2.2,0,0,0-1.68-.653,2.25,2.25,0,0,0-1.717.675,2.758,2.758,0,0,0-.638,1.965V16H20.7V7.78H22.07V8.95a2.71,2.71,0,0,1,1.1-.975A3.42,3.42,0,0,1,24.71,7.63Z" transform="translate(1196 1014)" fill="#fdb31e"/><g transform="translate(1187 960)" fill="none" stroke="#fb9924" stroke-width="4"><circle cx="24.5" cy="24.5" r="24.5" stroke="none"/><circle cx="24.5" cy="24.5" r="22.5" fill="none"/></g><path d="M22.035,8a14.11,14.11,0,0,0-4.816.8l.776-7.694a1.022,1.022,0,0,0-1.162-1.1A10.065,10.065,0,0,0,8,9.964a14.11,14.11,0,0,0,.8,4.816L1.109,14a1.022,1.022,0,0,0-1.1,1.162A10.065,10.065,0,0,0,9.964,24a14.11,14.11,0,0,0,4.816-.8L14,30.89a1.023,1.023,0,0,0,1.162,1.1A10.065,10.065,0,0,0,24,22.035a14.11,14.11,0,0,0-.8-4.816l7.694.776a1.023,1.023,0,0,0,1.1-1.162A10.065,10.065,0,0,0,22.035,8ZM16,18a2,2,0,1,1,2-2A2,2,0,0,1,16,18Z" transform="translate(1195.5 968.5)" fill="url(#h)"/><g transform="translate(-0.5 -46.361)"><g transform="translate(941 781)" fill="url(#i)"><path d="M 293.0838623046875 79.86070251464844 L 0.9034332036972046 79.86070251464844 L 50.64048004150391 0.5000127553939819 L 242.0381164550781 0.5000127553939819 L 293.0838623046875 79.86070251464844 Z" stroke="none"/><path d="M 50.91720581054688 1.000015258789062 L 1.806884765625 79.36070251464844 L 292.1677856445312 79.36070251464844 L 241.7652587890625 1.000015258789062 L 50.91720581054688 1.000015258789062 M 50.36376953125 1.52587890625e-05 L 242.31103515625 1.52587890625e-05 L 294 80.36070251464844 L 0 80.36070251464844 L 50.36376953125 1.52587890625e-05 Z" stroke="none" fill="#fff"/></g><line y2="78.5" transform="translate(1087.5 781.5)" fill="none" stroke="#fff" stroke-linecap="round" stroke-width="1"/><g transform="translate(966.481 781)" fill="none"><path d="M41.634,0H200.308l42.729,80.361H0Z" stroke="none"/><path d="M 42.24169921875 0.9999847412109375 L 1.644302368164062 79.36070251464844 L 241.3728332519531 79.36070251464844 L 199.7072448730469 0.9999847412109375 L 42.24169921875 0.9999847412109375 M 41.63356018066406 -1.52587890625e-05 L 200.3080902099609 -1.52587890625e-05 L 243.0371246337891 80.36070251464844 L -1.52587890625e-05 80.36070251464844 L 41.63356018066406 -1.52587890625e-05 Z" stroke="none" fill="#fff"/></g><g transform="translate(997.004 781)" fill="none"><path d="M31.176,0H150l32,80.361H0Z" stroke="none"/><path d="M 31.86091613769531 1 L 1.460586547851562 79.3607177734375 L 180.5176696777344 79.3607177734375 L 149.3174438476562 1 L 31.86091613769531 1 M 31.17623901367188 0 L 149.9956359863281 0 L 181.9921875 80.3607177734375 L 0 80.3607177734375 L 31.17623901367188 0 Z" stroke="none" fill="#fff"/></g><g transform="translate(1029.207 781)" fill="none"><path d="M20.143,0h76.77l20.673,80.361H0Z" stroke="none"/><path d="M 20.92336273193359 1.000007629394531 L 1.281593322753906 79.36071014404297 L 116.2961349487305 79.36071014404297 L 96.13753509521484 1.000007629394531 L 20.92336273193359 1.000007629394531 M 20.14309692382812 7.62939453125e-06 L 96.91283416748047 7.62939453125e-06 L 117.5859451293945 80.36071014404297 L 0 80.36071014404297 L 20.14309692382812 7.62939453125e-06 Z" stroke="none" fill="#fff"/></g><g transform="translate(1058.89 781)" fill="none"><path d="M9.974,0H47.985L58.221,80.361H0Z" stroke="none"/><path d="M 10.85708618164062 1 L 1.131782531738281 79.3607177734375 L 57.08525085449219 79.3607177734375 L 47.10405731201172 1 L 10.85708618164062 1 M 9.973518371582031 0 L 47.98476409912109 0 L 58.22071075439453 80.3607177734375 L -3.814697265625e-06 80.3607177734375 L 9.973518371582031 0 Z" stroke="none" fill="#fff"/></g><g transform="translate(1058.89 781)" fill="none"><path d="M9.974,0H47.985L58.221,80.361H0Z" stroke="none"/><path d="M 10.85708618164062 1 L 1.131782531738281 79.3607177734375 L 57.08525085449219 79.3607177734375 L 47.10405731201172 1 L 10.85708618164062 1 M 9.973518371582031 0 L 47.98476409912109 0 L 58.22071075439453 80.3607177734375 L -3.814697265625e-06 80.3607177734375 L 9.973518371582031 0 Z" stroke="none" fill="#fff"/></g><line x2="269" transform="translate(953.5 841.5)" fill="none" stroke="#fff" stroke-width="1"/><line x2="224" transform="translate(975.5 806.5)" fill="none" stroke="#fff" stroke-width="1"/><line x2="245" transform="translate(965 824)" fill="none" stroke="#fff" stroke-width="1"/><line x2="206" transform="translate(984 793)" fill="none" stroke="#fff" stroke-width="1"/></g><path d="M-6179,53a4,4,0,0,1-4-4V43a4,4,0,0,1,4-4h35V11h-16a4,4,0,0,1-4-4V0h53V7a4,4,0,0,1-4,4h-15V39h34a4,4,0,0,1,4,4v6a4,4,0,0,1-4,4Z" transform="translate(7225 815)" fill="url(#j)"/><path d="M3.915,14.89h3.66V16H2.55V5.545H3.915Zm4.6-3.03a4.617,4.617,0,0,1,.51-2.213,3.7,3.7,0,0,1,1.4-1.477,3.847,3.847,0,0,1,1.987-.525A3.648,3.648,0,0,1,14.3,8.11,3.1,3.1,0,0,1,15.48,9.28V7.78h1.38V16H15.48V14.47a3.216,3.216,0,0,1-1.208,1.193,3.612,3.612,0,0,1-1.868.472,3.726,3.726,0,0,1-1.98-.54A3.787,3.787,0,0,1,9.03,14.08,4.718,4.718,0,0,1,8.52,11.86Zm6.96.015a3.342,3.342,0,0,0-.375-1.62A2.648,2.648,0,0,0,14.093,9.2a2.871,2.871,0,0,0-2.8-.007,2.612,2.612,0,0,0-1.005,1.05,3.342,3.342,0,0,0-.375,1.62A3.419,3.419,0,0,0,10.29,13.5,2.653,2.653,0,0,0,11.3,14.568a2.718,2.718,0,0,0,1.395.367,2.758,2.758,0,0,0,1.4-.367A2.637,2.637,0,0,0,15.105,13.5,3.386,3.386,0,0,0,15.48,11.875ZM29.055,7.63a3.6,3.6,0,0,1,1.71.4A2.868,2.868,0,0,1,31.95,9.22a3.981,3.981,0,0,1,.435,1.935V16h-1.35V11.35a2.664,2.664,0,0,0-.608-1.883,2.135,2.135,0,0,0-1.642-.653A2.195,2.195,0,0,0,27.09,9.5a2.807,2.807,0,0,0-.63,1.972V16H25.11V11.35A2.664,2.664,0,0,0,24.5,9.467a2.135,2.135,0,0,0-1.642-.653,2.195,2.195,0,0,0-1.7.682,2.807,2.807,0,0,0-.63,1.972V16H19.17V7.78h1.365V8.965a2.7,2.7,0,0,1,1.087-.99A3.293,3.293,0,0,1,23.13,7.63a3.557,3.557,0,0,1,1.83.465A2.837,2.837,0,0,1,26.145,9.46a2.7,2.7,0,0,1,1.14-1.35A3.358,3.358,0,0,1,29.055,7.63ZM35.985,9.3a3.255,3.255,0,0,1,1.208-1.177,3.612,3.612,0,0,1,1.868-.473,3.847,3.847,0,0,1,1.987.525,3.7,3.7,0,0,1,1.4,1.477,4.617,4.617,0,0,1,.51,2.213,4.718,4.718,0,0,1-.51,2.22,3.74,3.74,0,0,1-3.39,2.055,3.582,3.582,0,0,1-1.853-.472,3.379,3.379,0,0,1-1.222-1.178V19.9H34.62V7.78h1.365Zm5.58,2.565a3.342,3.342,0,0,0-.375-1.62,2.6,2.6,0,0,0-1.013-1.05,2.8,2.8,0,0,0-1.4-.36,2.73,2.73,0,0,0-1.388.367,2.687,2.687,0,0,0-1.02,1.065,3.3,3.3,0,0,0-.382,1.613,3.332,3.332,0,0,0,.382,1.628,2.687,2.687,0,0,0,1.02,1.065,2.73,2.73,0,0,0,1.388.367,2.758,2.758,0,0,0,1.4-.367A2.637,2.637,0,0,0,41.19,13.5,3.419,3.419,0,0,0,41.565,11.86Z" transform="translate(1396 1014)" fill="#fdb31e"/><g transform="translate(727.272 655.271)"><rect width="2.984" height="8.614" rx="1.375" transform="translate(689.733 345.115)" fill="url(#k)"/><path d="M684.246,332.055a7.18,7.18,0,0,0,14.08,0" fill="none" stroke="#f97f2a" stroke-linecap="square" stroke-miterlimit="10" stroke-width="3"/><rect width="2.984" height="9.107" rx="1.375" transform="translate(679.903 339.815) rotate(45)" fill="url(#k)"/><rect width="2.984" height="9.107" rx="1.375" transform="translate(700.404 341.925) rotate(-45)" fill="url(#k)"/><path d="M14.875,0h2.5A14.326,14.326,0,0,1,31.7,14.326v1.8a1.228,1.228,0,0,1-1.228,1.228H1.114A1.114,1.114,0,0,1,0,16.242V14.875A14.875,14.875,0,0,1,14.875,0Z" transform="translate(675.376 314.699)" fill="url(#k)"/><rect width="41.005" height="2.866" rx="1.32" transform="translate(670.722 304.729)" fill="url(#k)"/><rect width="7.134" height="2.866" transform="translate(689.792 314.729) rotate(-90)" fill="url(#k)"/></g></g></svg>