<svg xmlns="http://www.w3.org/2000/svg" xmlns:xlink="http://www.w3.org/1999/xlink" width="44" height="44" viewBox="0 0 44 44"><defs><linearGradient id="a" x1="0.5" x2="-0.245" y2="1.701" gradientUnits="objectBoundingBox"><stop offset="0" stop-color="#ffc34b" stop-opacity="0.671"/><stop offset="1" stop-color="#f97f2a"/></linearGradient></defs><g transform="translate(-6 -6)"><path d="M23.653,25.626A8.826,8.826,0,1,1,14.826,16.8,8.826,8.826,0,0,1,23.653,25.626Z" transform="translate(0 8.927)" fill="url(#a)"/><path d="M30.233,29.516A5.516,5.516,0,1,1,24.716,24,5.516,5.516,0,0,1,30.233,29.516Z" transform="translate(10.976 14.967)" fill="url(#a)"/><path d="M42.079,19.24A13.24,13.24,0,1,1,28.84,6a13.24,13.24,0,0,1,13.24,13.24Z" transform="translate(7.921)" fill="url(#a)"/></g></svg>