<svg xmlns="http://www.w3.org/2000/svg" xmlns:xlink="http://www.w3.org/1999/xlink" width="26.167" height="26.167" viewBox="0 0 26.167 26.167"><defs><linearGradient id="a" x1="0.616" x2="0.32" y2="1" gradientUnits="objectBoundingBox"><stop offset="0" stop-color="#fdb31e"/><stop offset="1" stop-color="#f97f2a"/></linearGradient></defs><path d="M18.546,10.859A7.045,7.045,0,1,0,25.591,17.9a7.054,7.054,0,0,0-7.045-7.045Zm0-2.013a1.006,1.006,0,0,0,1.006-1.006V5.827a1.006,1.006,0,1,0-2.013,0V7.839A1,1,0,0,0,18.546,8.846Zm0,18.116a1.006,1.006,0,0,0-1.006,1.006v2.013a1.006,1.006,0,0,0,2.013,0V27.968A1.007,1.007,0,0,0,18.546,26.961ZM26.372,11.5,27.8,10.075a1.006,1.006,0,0,0-1.423-1.423l-1.423,1.423A1.006,1.006,0,0,0,26.372,11.5ZM10.718,24.31,9.295,25.733a1.006,1.006,0,1,0,1.423,1.423l1.423-1.423a1.006,1.006,0,0,0-1.423-1.423ZM9.488,17.9A1.007,1.007,0,0,0,8.482,16.9H6.469a1.006,1.006,0,1,0,0,2.013H8.482A1.006,1.006,0,0,0,9.488,17.9ZM30.623,16.9H28.61a1.006,1.006,0,0,0,0,2.013h2.013a1.006,1.006,0,0,0,0-2.013ZM10.716,11.5a1.006,1.006,0,1,0,1.423-1.423L10.716,8.652a1.006,1.006,0,0,0-1.423,1.423Zm15.659,12.81a1.006,1.006,0,0,0-1.423,1.423l1.423,1.423A1.006,1.006,0,1,0,27.8,25.731Z" transform="translate(-5.463 -4.82)" fill="url(#a)"/></svg>